<?xml version="1.0" encoding="utf-8" standalone="no"?>
<!DOCTYPE svg PUBLIC "-//W3C//DTD SVG 1.1//EN"
  "http://www.w3.org/Graphics/SVG/1.1/DTD/svg11.dtd">
<svg xmlns:xlink="http://www.w3.org/1999/xlink" width="570.24pt" height="560.830625pt" viewBox="0 0 570.24 560.830625" xmlns="http://www.w3.org/2000/svg" version="1.1">
 <metadata>
  <rdf:RDF xmlns:dc="http://purl.org/dc/elements/1.1/" xmlns:cc="http://creativecommons.org/ns#" xmlns:rdf="http://www.w3.org/1999/02/22-rdf-syntax-ns#">
   <cc:Work>
    <dc:type rdf:resource="http://purl.org/dc/dcmitype/StillImage"/>
    <dc:date>2024-08-20T02:55:33.020253</dc:date>
    <dc:format>image/svg+xml</dc:format>
    <dc:creator>
     <cc:Agent>
      <dc:title>Matplotlib v3.8.3, https://matplotlib.org/</dc:title>
     </cc:Agent>
    </dc:creator>
   </cc:Work>
  </rdf:RDF>
 </metadata>
 <defs>
  <style type="text/css">*{stroke-linejoin: round; stroke-linecap: butt}</style>
 </defs>
 <g id="figure_1">
  <g id="patch_1">
   <path d="M 0 560.830625 
L 570.24 560.830625 
L 570.24 0 
L 0 0 
z
" style="fill: #ffffff"/>
  </g>
  <g id="axes_1">
   <g id="patch_2">
    <path d="M 33.2875 536.9525 
L 563.04 536.9525 
L 563.04 7.2 
L 33.2875 7.2 
z
" style="fill: #ffffff"/>
   </g>
   <g id="matplotlib.axis_1">
    <g id="xtick_1">
     <g id="line2d_1">
      <defs>
       <path id="m96358337e5" d="M 0 0 
L 0 3.5 
" style="stroke: #000000; stroke-width: 0.8"/>
      </defs>
      <g>
       <use xlink:href="#m96358337e5" x="50.399115" y="536.9525" style="stroke: #000000; stroke-width: 0.8"/>
      </g>
     </g>
     <g id="text_1">
      <!-- 0 -->
      <g transform="translate(47.217865 551.550937) scale(0.1 -0.1)">
       <defs>
        <path id="DejaVuSans-30" d="M 2034 4250 
Q 1547 4250 1301 3770 
Q 1056 3291 1056 2328 
Q 1056 1369 1301 889 
Q 1547 409 2034 409 
Q 2525 409 2770 889 
Q 3016 1369 3016 2328 
Q 3016 3291 2770 3770 
Q 2525 4250 2034 4250 
z
M 2034 4750 
Q 2819 4750 3233 4129 
Q 3647 3509 3647 2328 
Q 3647 1150 3233 529 
Q 2819 -91 2034 -91 
Q 1250 -91 836 529 
Q 422 1150 422 2328 
Q 422 3509 836 4129 
Q 1250 4750 2034 4750 
z
" transform="scale(0.015625)"/>
       </defs>
       <use xlink:href="#DejaVuSans-30"/>
      </g>
     </g>
    </g>
    <g id="xtick_2">
     <g id="line2d_2">
      <g>
       <use xlink:href="#m96358337e5" x="159.138875" y="536.9525" style="stroke: #000000; stroke-width: 0.8"/>
      </g>
     </g>
     <g id="text_2">
      <!-- 50 -->
      <g transform="translate(152.776375 551.550937) scale(0.1 -0.1)">
       <defs>
        <path id="DejaVuSans-35" d="M 691 4666 
L 3169 4666 
L 3169 4134 
L 1269 4134 
L 1269 2991 
Q 1406 3038 1543 3061 
Q 1681 3084 1819 3084 
Q 2600 3084 3056 2656 
Q 3513 2228 3513 1497 
Q 3513 744 3044 326 
Q 2575 -91 1722 -91 
Q 1428 -91 1123 -41 
Q 819 9 494 109 
L 494 744 
Q 775 591 1075 516 
Q 1375 441 1709 441 
Q 2250 441 2565 725 
Q 2881 1009 2881 1497 
Q 2881 1984 2565 2268 
Q 2250 2553 1709 2553 
Q 1456 2553 1204 2497 
Q 953 2441 691 2322 
L 691 4666 
z
" transform="scale(0.015625)"/>
       </defs>
       <use xlink:href="#DejaVuSans-35"/>
       <use xlink:href="#DejaVuSans-30" x="63.623047"/>
      </g>
     </g>
    </g>
    <g id="xtick_3">
     <g id="line2d_3">
      <g>
       <use xlink:href="#m96358337e5" x="267.878636" y="536.9525" style="stroke: #000000; stroke-width: 0.8"/>
      </g>
     </g>
     <g id="text_3">
      <!-- 100 -->
      <g transform="translate(258.334886 551.550937) scale(0.1 -0.1)">
       <defs>
        <path id="DejaVuSans-31" d="M 794 531 
L 1825 531 
L 1825 4091 
L 703 3866 
L 703 4441 
L 1819 4666 
L 2450 4666 
L 2450 531 
L 3481 531 
L 3481 0 
L 794 0 
L 794 531 
z
" transform="scale(0.015625)"/>
       </defs>
       <use xlink:href="#DejaVuSans-31"/>
       <use xlink:href="#DejaVuSans-30" x="63.623047"/>
       <use xlink:href="#DejaVuSans-30" x="127.246094"/>
      </g>
     </g>
    </g>
    <g id="xtick_4">
     <g id="line2d_4">
      <g>
       <use xlink:href="#m96358337e5" x="376.618396" y="536.9525" style="stroke: #000000; stroke-width: 0.8"/>
      </g>
     </g>
     <g id="text_4">
      <!-- 150 -->
      <g transform="translate(367.074646 551.550937) scale(0.1 -0.1)">
       <use xlink:href="#DejaVuSans-31"/>
       <use xlink:href="#DejaVuSans-35" x="63.623047"/>
       <use xlink:href="#DejaVuSans-30" x="127.246094"/>
      </g>
     </g>
    </g>
    <g id="xtick_5">
     <g id="line2d_5">
      <g>
       <use xlink:href="#m96358337e5" x="485.358156" y="536.9525" style="stroke: #000000; stroke-width: 0.8"/>
      </g>
     </g>
     <g id="text_5">
      <!-- 200 -->
      <g transform="translate(475.814406 551.550937) scale(0.1 -0.1)">
       <defs>
        <path id="DejaVuSans-32" d="M 1228 531 
L 3431 531 
L 3431 0 
L 469 0 
L 469 531 
Q 828 903 1448 1529 
Q 2069 2156 2228 2338 
Q 2531 2678 2651 2914 
Q 2772 3150 2772 3378 
Q 2772 3750 2511 3984 
Q 2250 4219 1831 4219 
Q 1534 4219 1204 4116 
Q 875 4013 500 3803 
L 500 4441 
Q 881 4594 1212 4672 
Q 1544 4750 1819 4750 
Q 2544 4750 2975 4387 
Q 3406 4025 3406 3419 
Q 3406 3131 3298 2873 
Q 3191 2616 2906 2266 
Q 2828 2175 2409 1742 
Q 1991 1309 1228 531 
z
" transform="scale(0.015625)"/>
       </defs>
       <use xlink:href="#DejaVuSans-32"/>
       <use xlink:href="#DejaVuSans-30" x="63.623047"/>
       <use xlink:href="#DejaVuSans-30" x="127.246094"/>
      </g>
     </g>
    </g>
   </g>
   <g id="matplotlib.axis_2">
    <g id="ytick_1">
     <g id="line2d_6">
      <defs>
       <path id="m2cbd282b38" d="M 0 0 
L -3.5 0 
" style="stroke: #000000; stroke-width: 0.8"/>
      </defs>
      <g>
       <use xlink:href="#m2cbd282b38" x="33.2875" y="517.455135" style="stroke: #000000; stroke-width: 0.8"/>
      </g>
     </g>
     <g id="text_6">
      <!-- 0 -->
      <g transform="translate(19.925 521.254353) scale(0.1 -0.1)">
       <use xlink:href="#DejaVuSans-30"/>
      </g>
     </g>
    </g>
    <g id="ytick_2">
     <g id="line2d_7">
      <g>
       <use xlink:href="#m2cbd282b38" x="33.2875" y="408.715374" style="stroke: #000000; stroke-width: 0.8"/>
      </g>
     </g>
     <g id="text_7">
      <!-- 50 -->
      <g transform="translate(13.5625 412.514593) scale(0.1 -0.1)">
       <use xlink:href="#DejaVuSans-35"/>
       <use xlink:href="#DejaVuSans-30" x="63.623047"/>
      </g>
     </g>
    </g>
    <g id="ytick_3">
     <g id="line2d_8">
      <g>
       <use xlink:href="#m2cbd282b38" x="33.2875" y="299.975614" style="stroke: #000000; stroke-width: 0.8"/>
      </g>
     </g>
     <g id="text_8">
      <!-- 100 -->
      <g transform="translate(7.2 303.774833) scale(0.1 -0.1)">
       <use xlink:href="#DejaVuSans-31"/>
       <use xlink:href="#DejaVuSans-30" x="63.623047"/>
       <use xlink:href="#DejaVuSans-30" x="127.246094"/>
      </g>
     </g>
    </g>
    <g id="ytick_4">
     <g id="line2d_9">
      <g>
       <use xlink:href="#m2cbd282b38" x="33.2875" y="191.235853" style="stroke: #000000; stroke-width: 0.8"/>
      </g>
     </g>
     <g id="text_9">
      <!-- 150 -->
      <g transform="translate(7.2 195.035072) scale(0.1 -0.1)">
       <use xlink:href="#DejaVuSans-31"/>
       <use xlink:href="#DejaVuSans-35" x="63.623047"/>
       <use xlink:href="#DejaVuSans-30" x="127.246094"/>
      </g>
     </g>
    </g>
    <g id="ytick_5">
     <g id="line2d_10">
      <g>
       <use xlink:href="#m2cbd282b38" x="33.2875" y="82.496093" style="stroke: #000000; stroke-width: 0.8"/>
      </g>
     </g>
     <g id="text_10">
      <!-- 200 -->
      <g transform="translate(7.2 86.295312) scale(0.1 -0.1)">
       <use xlink:href="#DejaVuSans-32"/>
       <use xlink:href="#DejaVuSans-30" x="63.623047"/>
       <use xlink:href="#DejaVuSans-30" x="127.246094"/>
      </g>
     </g>
    </g>
   </g>
   <g id="line2d_11">
    <path d="M 521.84468 512.872841 
L 538.960341 48.39532 
L 538.960341 48.39532 
L 74.48282 31.279659 
L 74.48282 31.279659 
L 57.367159 495.75718 
L 57.367159 495.75718 
L 521.84468 512.872841 
L 521.84468 512.872841 
" clip-path="url(#p8dc1a6f0dd)" style="fill: none; stroke: #1f77b4; stroke-width: 2; stroke-linecap: square"/>
   </g>
   <g id="line2d_12">
    <path d="M 140.526843 368.218059 
L 136.536475 362.414914 
L 132.792995 356.476041 
L 129.29756 350.407723 
L 126.051113 344.214955 
L 123.054651 337.901518 
L 120.309443 331.46997 
L 118.012178 325.46344 
L 116.006554 319.59695 
L 114.192306 313.60554 
L 112.579255 307.500555 
L 111.176483 301.294865 
L 109.992099 295.002661 
L 109.033036 288.639269 
L 108.304889 282.220914 
L 107.811788 275.764527 
L 107.556305 269.287356 
L 107.539424 262.806775 
L 107.760548 256.339991 
L 108.21756 249.90365 
L 108.906928 243.513725 
L 109.823853 237.185149 
L 110.962451 230.931678 
L 112.315973 224.76566 
L 113.877032 218.697931 
L 115.637849 212.737746 
L 117.590548 206.892592 
L 119.727366 201.168348 
L 122.518171 194.478424 
L 125.567264 187.939051 
L 128.869281 181.553068 
L 132.419294 175.323933 
L 135.35653 170.578164 
L 138.439771 165.93219 
L 141.666991 161.38838 
L 145.036097 156.949415 
L 148.544974 152.618159 
L 152.191419 148.397693 
L 155.973076 144.291338 
L 159.887465 140.302566 
L 163.931904 136.435034 
L 168.103524 132.692524 
L 172.399236 129.078928 
L 176.815703 125.598232 
L 181.349341 122.254471 
L 185.996303 119.051707 
L 190.752491 115.99399 
L 195.613571 113.085311 
L 200.574917 110.32962 
L 205.631688 107.730748 
L 210.778775 105.292419 
L 216.010909 103.018177 
L 221.322586 100.911409 
L 226.708158 98.975299 
L 232.161791 97.212829 
L 237.677589 95.626743 
L 243.249518 94.219563 
L 248.871519 92.99357 
L 254.537476 91.95081 
L 260.241291 91.093095 
L 265.976885 90.422016 
L 271.738246 89.938951 
L 277.519426 89.645088 
L 283.314601 89.541439 
L 289.118044 89.628871 
L 294.924164 89.908125 
L 300.727521 90.379853 
L 306.522854 91.044648 
L 312.305028 91.903074 
L 318.069034 92.955695 
L 323.810047 94.203123 
L 329.523375 95.64605 
L 335.204367 97.285256 
L 340.848535 99.121686 
L 346.451394 101.156439 
L 352.008446 103.390801 
L 357.515208 105.826292 
L 362.967098 108.46466 
L 368.359385 111.307898 
L 373.687181 114.358271 
L 378.945292 117.618275 
L 384.128182 121.090638 
L 389.229945 124.778333 
L 394.244143 128.684486 
L 399.163842 132.812418 
L 403.981349 137.165444 
L 408.688314 141.746936 
L 413.275516 146.560112 
L 418.059467 151.993553 
L 421.498171 156.194657 
L 424.733255 160.402496 
L 427.770717 164.606909 
L 431.971728 170.888908 
L 435.769674 177.122089 
L 439.192058 183.291558 
L 442.26664 189.389046 
L 445.020382 195.412105 
L 447.478624 201.363192 
L 449.664555 207.248942 
L 451.598784 213.079325 
L 453.29908 218.866897 
L 454.780242 224.626237 
L 456.054039 230.373479 
L 457.129119 236.125584 
L 458.011058 241.900111 
L 458.702356 247.714662 
L 459.202469 253.586506 
L 459.507857 259.532102 
L 459.612065 265.566709 
L 459.505822 271.703889 
L 459.177195 277.954935 
L 458.611829 284.328311 
L 457.802594 290.764583 
L 456.77744 297.053182 
L 455.544054 303.21538 
L 454.105993 309.273148 
L 452.462794 315.248502 
L 450.610082 321.16298 
L 448.53972 327.037063 
L 446.239951 332.889662 
L 443.695563 338.737602 
L 440.88815 344.594935 
L 437.796348 350.472445 
L 434.39629 356.376811 
L 430.662095 362.30997 
L 426.703502 368.077377 
L 422.764402 373.366651 
L 418.643026 378.489045 
L 414.352068 383.433109 
L 409.902203 388.191611 
L 405.301475 392.761002 
L 400.554666 397.140907 
L 395.662876 401.333433 
L 390.622957 405.342633 
L 386.215945 408.610911 
L 381.714132 411.736976 
L 377.116298 414.721952 
L 372.421229 417.566147 
L 367.627817 420.269074 
L 362.73522 422.829449 
L 357.742816 425.245302 
L 352.65037 427.513968 
L 347.458054 429.632171 
L 342.166565 431.596054 
L 336.777097 433.401273 
L 331.2915 435.043032 
L 325.712376 436.516142 
L 320.042925 437.815165 
L 314.287229 438.934428 
L 308.45015 439.868155 
L 302.53734 440.610562 
L 296.555379 441.155937 
L 290.511631 441.498768 
L 284.414333 441.633834 
L 278.272544 441.55632 
L 272.09602 441.261917 
L 265.895288 440.746917 
L 259.681486 440.008311 
L 253.466258 439.043859 
L 247.26173 437.852167 
L 241.08032 436.432737 
L 234.934639 434.785994 
L 228.837406 432.913326 
L 222.801225 430.817048 
L 216.838561 428.500422 
L 210.961509 425.967575 
L 205.181764 423.223475 
L 199.510477 420.273847 
L 193.958134 417.125067 
L 188.534518 413.784085 
L 183.248617 410.258293 
L 178.108612 406.55544 
L 173.121812 402.683474 
L 168.294681 398.650459 
L 163.632817 394.464427 
L 159.141002 390.133285 
L 154.823247 385.664714 
L 150.682829 381.066056 
L 146.722371 376.344239 
L 142.943911 371.505681 
L 140.526843 368.218059 
L 140.526843 368.218059 
" clip-path="url(#p8dc1a6f0dd)" style="fill: none; stroke: #ff7f0e; stroke-width: 2; stroke-linecap: square"/>
   </g>
   <g id="line2d_13">
    <path d="M 141.614378 367.437754 
L 144.992519 363.82961 
L 147.38041 361.41703 
L 149.864055 359.292808 
L 152.435375 357.43131 
L 155.086263 355.806933 
L 157.808648 354.394043 
L 160.594424 353.167004 
L 163.435511 352.100198 
L 167.783152 350.744352 
L 172.209723 349.604871 
L 179.688601 347.951657 
L 187.184486 346.258787 
L 191.637605 345.057467 
L 196.024047 343.611226 
L 198.897796 342.468293 
L 201.721701 341.152435 
L 204.487649 339.63805 
L 207.187543 337.899485 
L 209.813319 335.911121 
L 212.356863 333.647341 
L 214.810095 331.082493 
L 217.164917 328.19099 
L 219.41325 324.947165 
L 221.547012 321.325415 
L 223.558091 317.300106 
L 225.438404 312.845619 
L 226.914263 308.679291 
L 227.923925 304.936533 
L 228.722615 300.9501 
L 229.321019 296.751517 
L 229.729739 292.372342 
L 229.959477 287.844085 
L 230.020836 283.198305 
L 229.924484 278.466509 
L 229.507551 271.27657 
L 228.795655 264.07052 
L 227.824736 256.954799 
L 226.630749 250.03583 
L 225.249633 243.420054 
L 223.717311 237.21391 
L 222.069722 231.523789 
L 220.670255 227.353562 
L 218.921319 222.866586 
L 217.060236 218.795482 
L 215.091817 215.117286 
L 213.02094 211.809132 
L 210.852433 208.848124 
L 208.591158 206.211264 
L 206.241977 203.875689 
L 203.809735 201.818501 
L 201.299276 200.016735 
L 198.715446 198.447528 
L 196.063122 197.087916 
L 193.347133 195.915001 
L 190.572342 194.905853 
L 186.3105 193.649114 
L 181.943637 192.631935 
L 175.98608 191.514771 
L 162.206373 189.106156 
L 157.555905 188.060571 
L 152.904118 186.764774 
L 149.810279 185.723702 
L 146.727973 184.514118 
L 143.662068 183.113091 
L 140.617393 181.497691 
L 137.598825 179.645087 
L 134.611195 177.532248 
L 133.1305 176.371113 
L 130.629482 174.255055 
L 130.629482 174.255055 
" clip-path="url(#p8dc1a6f0dd)" style="fill: none; stroke: #2ca02c; stroke-width: 2; stroke-linecap: square"/>
   </g>
   <g id="line2d_14">
    <path d="M 434.250469 370.656458 
L 431.507551 367.525046 
L 428.688541 364.736234 
L 425.796523 362.269811 
L 422.834586 360.105585 
L 419.805815 358.223347 
L 416.713262 356.602903 
L 413.559982 355.224043 
L 410.349126 354.06656 
L 407.083714 353.110242 
L 403.766833 352.334913 
L 400.401568 351.720349 
L 395.269648 351.055774 
L 390.04617 350.639273 
L 382.957013 350.352026 
L 361.069752 349.793078 
L 355.507425 349.364448 
L 349.929701 348.683895 
L 346.207766 348.056554 
L 342.486662 347.266741 
L 338.769473 346.294245 
L 335.059286 345.118875 
L 331.359154 343.72042 
L 327.672164 342.078671 
L 324.0014 340.173436 
L 320.349917 337.984504 
L 316.718246 335.53552 
L 313.268526 332.97248 
L 310.000127 330.301042 
L 306.912453 327.52688 
L 304.004856 324.655637 
L 301.276722 321.693003 
L 298.727437 318.644636 
L 296.35637 315.516194 
L 294.162909 312.313336 
L 292.146405 309.041735 
L 290.306261 305.70705 
L 288.641847 302.314956 
L 287.152549 298.871093 
L 285.83772 295.381137 
L 284.696745 291.850761 
L 283.729029 288.285625 
L 282.933906 284.691386 
L 282.310796 281.073701 
L 281.859035 277.438246 
L 281.578027 273.790696 
L 281.467157 270.136691 
L 281.525778 266.481889 
L 281.753276 262.831983 
L 282.149037 259.192629 
L 282.712431 255.569469 
L 283.442827 251.968194 
L 284.339628 248.394463 
L 285.402187 244.853917 
L 286.629889 241.35223 
L 288.022105 237.895093 
L 289.578221 234.488115 
L 291.297605 231.13702 
L 293.179661 227.84745 
L 295.223725 224.625046 
L 297.429216 221.475482 
L 299.795471 218.404467 
L 302.321892 215.417574 
L 305.007865 212.520546 
L 307.852743 209.719024 
L 310.870032 207.018649 
L 314.031576 204.513267 
L 317.305781 202.218045 
L 320.682827 200.11473 
L 324.152905 198.18497 
L 327.706161 196.410549 
L 333.170543 194.000109 
L 338.766851 191.836298 
L 344.46195 189.857392 
L 354.083202 186.802604 
L 367.566959 182.557048 
L 373.258574 180.577246 
L 378.85007 178.412174 
L 384.30823 176.000141 
L 387.856575 174.224426 
L 391.321128 172.29324 
L 394.692034 170.188332 
L 397.95947 167.89135 
L 401.113647 165.384077 
L 404.144708 162.648194 
L 407.042864 159.66545 
L 409.798259 156.417527 
L 411.119344 154.688436 
L 412.502517 153.174762 
L 412.502517 153.176937 
" clip-path="url(#p8dc1a6f0dd)" style="fill: none; stroke: #d62728; stroke-width: 2; stroke-linecap: square"/>
   </g>
   <g id="patch_3">
    <path d="M 33.2875 536.9525 
L 33.2875 7.2 
" style="fill: none; stroke: #000000; stroke-width: 0.8; stroke-linejoin: miter; stroke-linecap: square"/>
   </g>
   <g id="patch_4">
    <path d="M 563.04 536.9525 
L 563.04 7.2 
" style="fill: none; stroke: #000000; stroke-width: 0.8; stroke-linejoin: miter; stroke-linecap: square"/>
   </g>
   <g id="patch_5">
    <path d="M 33.2875 536.9525 
L 563.04 536.9525 
" style="fill: none; stroke: #000000; stroke-width: 0.8; stroke-linejoin: miter; stroke-linecap: square"/>
   </g>
   <g id="patch_6">
    <path d="M 33.2875 7.2 
L 563.04 7.2 
" style="fill: none; stroke: #000000; stroke-width: 0.8; stroke-linejoin: miter; stroke-linecap: square"/>
   </g>
  </g>
 </g>
 <defs>
  <clipPath id="p8dc1a6f0dd">
   <rect x="33.2875" y="7.2" width="529.7525" height="529.7525"/>
  </clipPath>
 </defs>
</svg>
