<?xml version="1.0" encoding="utf-8" standalone="no"?>
<!DOCTYPE svg PUBLIC "-//W3C//DTD SVG 1.1//EN"
  "http://www.w3.org/Graphics/SVG/1.1/DTD/svg11.dtd">
<svg xmlns:xlink="http://www.w3.org/1999/xlink" width="567.9512pt" height="507.710006pt" viewBox="0 0 567.9512 507.710006" xmlns="http://www.w3.org/2000/svg" version="1.1">
 <metadata>
  <rdf:RDF xmlns:dc="http://purl.org/dc/elements/1.1/" xmlns:cc="http://creativecommons.org/ns#" xmlns:rdf="http://www.w3.org/1999/02/22-rdf-syntax-ns#">
   <cc:Work>
    <dc:type rdf:resource="http://purl.org/dc/dcmitype/StillImage"/>
    <dc:date>2024-08-20T02:55:35.479991</dc:date>
    <dc:format>image/svg+xml</dc:format>
    <dc:creator>
     <cc:Agent>
      <dc:title>Matplotlib v3.8.3, https://matplotlib.org/</dc:title>
     </cc:Agent>
    </dc:creator>
   </cc:Work>
  </rdf:RDF>
 </metadata>
 <defs>
  <style type="text/css">*{stroke-linejoin: round; stroke-linecap: butt}</style>
 </defs>
 <g id="figure_1">
  <g id="patch_1">
   <path d="M 0 507.710006 
L 567.9512 507.710006 
L 567.9512 0 
L 0 0 
z
" style="fill: #ffffff"/>
  </g>
  <g id="axes_1">
   <g id="patch_2">
    <path d="M 33.2875 483.831881 
L 556.959746 483.831881 
L 556.959746 9.545292 
L 33.2875 9.545292 
z
" style="fill: #ffffff"/>
   </g>
   <g id="matplotlib.axis_1">
    <g id="xtick_1">
     <g id="line2d_1">
      <defs>
       <path id="m9f4d37a4c1" d="M 0 0 
L 0 3.5 
" style="stroke: #000000; stroke-width: 0.8"/>
      </defs>
      <g>
       <use xlink:href="#m9f4d37a4c1" x="51.378453" y="483.831881" style="stroke: #000000; stroke-width: 0.8"/>
      </g>
     </g>
     <g id="text_1">
      <!-- 0 -->
      <g transform="translate(48.197203 498.430318) scale(0.1 -0.1)">
       <defs>
        <path id="DejaVuSans-30" d="M 2034 4250 
Q 1547 4250 1301 3770 
Q 1056 3291 1056 2328 
Q 1056 1369 1301 889 
Q 1547 409 2034 409 
Q 2525 409 2770 889 
Q 3016 1369 3016 2328 
Q 3016 3291 2770 3770 
Q 2525 4250 2034 4250 
z
M 2034 4750 
Q 2819 4750 3233 4129 
Q 3647 3509 3647 2328 
Q 3647 1150 3233 529 
Q 2819 -91 2034 -91 
Q 1250 -91 836 529 
Q 422 1150 422 2328 
Q 422 3509 836 4129 
Q 1250 4750 2034 4750 
z
" transform="scale(0.015625)"/>
       </defs>
       <use xlink:href="#DejaVuSans-30"/>
      </g>
     </g>
    </g>
    <g id="xtick_2">
     <g id="line2d_2">
      <g>
       <use xlink:href="#m9f4d37a4c1" x="122.782595" y="483.831881" style="stroke: #000000; stroke-width: 0.8"/>
      </g>
     </g>
     <g id="text_2">
      <!-- 25 -->
      <g transform="translate(116.420095 498.430318) scale(0.1 -0.1)">
       <defs>
        <path id="DejaVuSans-32" d="M 1228 531 
L 3431 531 
L 3431 0 
L 469 0 
L 469 531 
Q 828 903 1448 1529 
Q 2069 2156 2228 2338 
Q 2531 2678 2651 2914 
Q 2772 3150 2772 3378 
Q 2772 3750 2511 3984 
Q 2250 4219 1831 4219 
Q 1534 4219 1204 4116 
Q 875 4013 500 3803 
L 500 4441 
Q 881 4594 1212 4672 
Q 1544 4750 1819 4750 
Q 2544 4750 2975 4387 
Q 3406 4025 3406 3419 
Q 3406 3131 3298 2873 
Q 3191 2616 2906 2266 
Q 2828 2175 2409 1742 
Q 1991 1309 1228 531 
z
" transform="scale(0.015625)"/>
        <path id="DejaVuSans-35" d="M 691 4666 
L 3169 4666 
L 3169 4134 
L 1269 4134 
L 1269 2991 
Q 1406 3038 1543 3061 
Q 1681 3084 1819 3084 
Q 2600 3084 3056 2656 
Q 3513 2228 3513 1497 
Q 3513 744 3044 326 
Q 2575 -91 1722 -91 
Q 1428 -91 1123 -41 
Q 819 9 494 109 
L 494 744 
Q 775 591 1075 516 
Q 1375 441 1709 441 
Q 2250 441 2565 725 
Q 2881 1009 2881 1497 
Q 2881 1984 2565 2268 
Q 2250 2553 1709 2553 
Q 1456 2553 1204 2497 
Q 953 2441 691 2322 
L 691 4666 
z
" transform="scale(0.015625)"/>
       </defs>
       <use xlink:href="#DejaVuSans-32"/>
       <use xlink:href="#DejaVuSans-35" x="63.623047"/>
      </g>
     </g>
    </g>
    <g id="xtick_3">
     <g id="line2d_3">
      <g>
       <use xlink:href="#m9f4d37a4c1" x="194.186738" y="483.831881" style="stroke: #000000; stroke-width: 0.8"/>
      </g>
     </g>
     <g id="text_3">
      <!-- 50 -->
      <g transform="translate(187.824238 498.430318) scale(0.1 -0.1)">
       <use xlink:href="#DejaVuSans-35"/>
       <use xlink:href="#DejaVuSans-30" x="63.623047"/>
      </g>
     </g>
    </g>
    <g id="xtick_4">
     <g id="line2d_4">
      <g>
       <use xlink:href="#m9f4d37a4c1" x="265.59088" y="483.831881" style="stroke: #000000; stroke-width: 0.8"/>
      </g>
     </g>
     <g id="text_4">
      <!-- 75 -->
      <g transform="translate(259.22838 498.430318) scale(0.1 -0.1)">
       <defs>
        <path id="DejaVuSans-37" d="M 525 4666 
L 3525 4666 
L 3525 4397 
L 1831 0 
L 1172 0 
L 2766 4134 
L 525 4134 
L 525 4666 
z
" transform="scale(0.015625)"/>
       </defs>
       <use xlink:href="#DejaVuSans-37"/>
       <use xlink:href="#DejaVuSans-35" x="63.623047"/>
      </g>
     </g>
    </g>
    <g id="xtick_5">
     <g id="line2d_5">
      <g>
       <use xlink:href="#m9f4d37a4c1" x="336.995023" y="483.831881" style="stroke: #000000; stroke-width: 0.8"/>
      </g>
     </g>
     <g id="text_5">
      <!-- 100 -->
      <g transform="translate(327.451273 498.430318) scale(0.1 -0.1)">
       <defs>
        <path id="DejaVuSans-31" d="M 794 531 
L 1825 531 
L 1825 4091 
L 703 3866 
L 703 4441 
L 1819 4666 
L 2450 4666 
L 2450 531 
L 3481 531 
L 3481 0 
L 794 0 
L 794 531 
z
" transform="scale(0.015625)"/>
       </defs>
       <use xlink:href="#DejaVuSans-31"/>
       <use xlink:href="#DejaVuSans-30" x="63.623047"/>
       <use xlink:href="#DejaVuSans-30" x="127.246094"/>
      </g>
     </g>
    </g>
    <g id="xtick_6">
     <g id="line2d_6">
      <g>
       <use xlink:href="#m9f4d37a4c1" x="408.399165" y="483.831881" style="stroke: #000000; stroke-width: 0.8"/>
      </g>
     </g>
     <g id="text_6">
      <!-- 125 -->
      <g transform="translate(398.855415 498.430318) scale(0.1 -0.1)">
       <use xlink:href="#DejaVuSans-31"/>
       <use xlink:href="#DejaVuSans-32" x="63.623047"/>
       <use xlink:href="#DejaVuSans-35" x="127.246094"/>
      </g>
     </g>
    </g>
    <g id="xtick_7">
     <g id="line2d_7">
      <g>
       <use xlink:href="#m9f4d37a4c1" x="479.803308" y="483.831881" style="stroke: #000000; stroke-width: 0.8"/>
      </g>
     </g>
     <g id="text_7">
      <!-- 150 -->
      <g transform="translate(470.259558 498.430318) scale(0.1 -0.1)">
       <use xlink:href="#DejaVuSans-31"/>
       <use xlink:href="#DejaVuSans-35" x="63.623047"/>
       <use xlink:href="#DejaVuSans-30" x="127.246094"/>
      </g>
     </g>
    </g>
    <g id="xtick_8">
     <g id="line2d_8">
      <g>
       <use xlink:href="#m9f4d37a4c1" x="551.20745" y="483.831881" style="stroke: #000000; stroke-width: 0.8"/>
      </g>
     </g>
     <g id="text_8">
      <!-- 175 -->
      <g transform="translate(541.6637 498.430318) scale(0.1 -0.1)">
       <use xlink:href="#DejaVuSans-31"/>
       <use xlink:href="#DejaVuSans-37" x="63.623047"/>
       <use xlink:href="#DejaVuSans-35" x="127.246094"/>
      </g>
     </g>
    </g>
   </g>
   <g id="matplotlib.axis_2">
    <g id="ytick_1">
     <g id="line2d_9">
      <defs>
       <path id="m07bf821a53" d="M 0 0 
L -3.5 0 
" style="stroke: #000000; stroke-width: 0.8"/>
      </defs>
      <g>
       <use xlink:href="#m07bf821a53" x="33.2875" y="467.985731" style="stroke: #000000; stroke-width: 0.8"/>
      </g>
     </g>
     <g id="text_9">
      <!-- 0 -->
      <g transform="translate(19.925 471.78495) scale(0.1 -0.1)">
       <use xlink:href="#DejaVuSans-30"/>
      </g>
     </g>
    </g>
    <g id="ytick_2">
     <g id="line2d_10">
      <g>
       <use xlink:href="#m07bf821a53" x="33.2875" y="410.862417" style="stroke: #000000; stroke-width: 0.8"/>
      </g>
     </g>
     <g id="text_10">
      <!-- 20 -->
      <g transform="translate(13.5625 414.661636) scale(0.1 -0.1)">
       <use xlink:href="#DejaVuSans-32"/>
       <use xlink:href="#DejaVuSans-30" x="63.623047"/>
      </g>
     </g>
    </g>
    <g id="ytick_3">
     <g id="line2d_11">
      <g>
       <use xlink:href="#m07bf821a53" x="33.2875" y="353.739103" style="stroke: #000000; stroke-width: 0.8"/>
      </g>
     </g>
     <g id="text_11">
      <!-- 40 -->
      <g transform="translate(13.5625 357.538322) scale(0.1 -0.1)">
       <defs>
        <path id="DejaVuSans-34" d="M 2419 4116 
L 825 1625 
L 2419 1625 
L 2419 4116 
z
M 2253 4666 
L 3047 4666 
L 3047 1625 
L 3713 1625 
L 3713 1100 
L 3047 1100 
L 3047 0 
L 2419 0 
L 2419 1100 
L 313 1100 
L 313 1709 
L 2253 4666 
z
" transform="scale(0.015625)"/>
       </defs>
       <use xlink:href="#DejaVuSans-34"/>
       <use xlink:href="#DejaVuSans-30" x="63.623047"/>
      </g>
     </g>
    </g>
    <g id="ytick_4">
     <g id="line2d_12">
      <g>
       <use xlink:href="#m07bf821a53" x="33.2875" y="296.615789" style="stroke: #000000; stroke-width: 0.8"/>
      </g>
     </g>
     <g id="text_12">
      <!-- 60 -->
      <g transform="translate(13.5625 300.415008) scale(0.1 -0.1)">
       <defs>
        <path id="DejaVuSans-36" d="M 2113 2584 
Q 1688 2584 1439 2293 
Q 1191 2003 1191 1497 
Q 1191 994 1439 701 
Q 1688 409 2113 409 
Q 2538 409 2786 701 
Q 3034 994 3034 1497 
Q 3034 2003 2786 2293 
Q 2538 2584 2113 2584 
z
M 3366 4563 
L 3366 3988 
Q 3128 4100 2886 4159 
Q 2644 4219 2406 4219 
Q 1781 4219 1451 3797 
Q 1122 3375 1075 2522 
Q 1259 2794 1537 2939 
Q 1816 3084 2150 3084 
Q 2853 3084 3261 2657 
Q 3669 2231 3669 1497 
Q 3669 778 3244 343 
Q 2819 -91 2113 -91 
Q 1303 -91 875 529 
Q 447 1150 447 2328 
Q 447 3434 972 4092 
Q 1497 4750 2381 4750 
Q 2619 4750 2861 4703 
Q 3103 4656 3366 4563 
z
" transform="scale(0.015625)"/>
       </defs>
       <use xlink:href="#DejaVuSans-36"/>
       <use xlink:href="#DejaVuSans-30" x="63.623047"/>
      </g>
     </g>
    </g>
    <g id="ytick_5">
     <g id="line2d_13">
      <g>
       <use xlink:href="#m07bf821a53" x="33.2875" y="239.492475" style="stroke: #000000; stroke-width: 0.8"/>
      </g>
     </g>
     <g id="text_13">
      <!-- 80 -->
      <g transform="translate(13.5625 243.291694) scale(0.1 -0.1)">
       <defs>
        <path id="DejaVuSans-38" d="M 2034 2216 
Q 1584 2216 1326 1975 
Q 1069 1734 1069 1313 
Q 1069 891 1326 650 
Q 1584 409 2034 409 
Q 2484 409 2743 651 
Q 3003 894 3003 1313 
Q 3003 1734 2745 1975 
Q 2488 2216 2034 2216 
z
M 1403 2484 
Q 997 2584 770 2862 
Q 544 3141 544 3541 
Q 544 4100 942 4425 
Q 1341 4750 2034 4750 
Q 2731 4750 3128 4425 
Q 3525 4100 3525 3541 
Q 3525 3141 3298 2862 
Q 3072 2584 2669 2484 
Q 3125 2378 3379 2068 
Q 3634 1759 3634 1313 
Q 3634 634 3220 271 
Q 2806 -91 2034 -91 
Q 1263 -91 848 271 
Q 434 634 434 1313 
Q 434 1759 690 2068 
Q 947 2378 1403 2484 
z
M 1172 3481 
Q 1172 3119 1398 2916 
Q 1625 2713 2034 2713 
Q 2441 2713 2670 2916 
Q 2900 3119 2900 3481 
Q 2900 3844 2670 4047 
Q 2441 4250 2034 4250 
Q 1625 4250 1398 4047 
Q 1172 3844 1172 3481 
z
" transform="scale(0.015625)"/>
       </defs>
       <use xlink:href="#DejaVuSans-38"/>
       <use xlink:href="#DejaVuSans-30" x="63.623047"/>
      </g>
     </g>
    </g>
    <g id="ytick_6">
     <g id="line2d_14">
      <g>
       <use xlink:href="#m07bf821a53" x="33.2875" y="182.369161" style="stroke: #000000; stroke-width: 0.8"/>
      </g>
     </g>
     <g id="text_14">
      <!-- 100 -->
      <g transform="translate(7.2 186.16838) scale(0.1 -0.1)">
       <use xlink:href="#DejaVuSans-31"/>
       <use xlink:href="#DejaVuSans-30" x="63.623047"/>
       <use xlink:href="#DejaVuSans-30" x="127.246094"/>
      </g>
     </g>
    </g>
    <g id="ytick_7">
     <g id="line2d_15">
      <g>
       <use xlink:href="#m07bf821a53" x="33.2875" y="125.245847" style="stroke: #000000; stroke-width: 0.8"/>
      </g>
     </g>
     <g id="text_15">
      <!-- 120 -->
      <g transform="translate(7.2 129.045066) scale(0.1 -0.1)">
       <use xlink:href="#DejaVuSans-31"/>
       <use xlink:href="#DejaVuSans-32" x="63.623047"/>
       <use xlink:href="#DejaVuSans-30" x="127.246094"/>
      </g>
     </g>
    </g>
    <g id="ytick_8">
     <g id="line2d_16">
      <g>
       <use xlink:href="#m07bf821a53" x="33.2875" y="68.122533" style="stroke: #000000; stroke-width: 0.8"/>
      </g>
     </g>
     <g id="text_16">
      <!-- 140 -->
      <g transform="translate(7.2 71.921752) scale(0.1 -0.1)">
       <use xlink:href="#DejaVuSans-31"/>
       <use xlink:href="#DejaVuSans-34" x="63.623047"/>
       <use xlink:href="#DejaVuSans-30" x="127.246094"/>
      </g>
     </g>
    </g>
    <g id="ytick_9">
     <g id="line2d_17">
      <g>
       <use xlink:href="#m07bf821a53" x="33.2875" y="10.999219" style="stroke: #000000; stroke-width: 0.8"/>
      </g>
     </g>
     <g id="text_17">
      <!-- 160 -->
      <g transform="translate(7.2 14.798437) scale(0.1 -0.1)">
       <use xlink:href="#DejaVuSans-31"/>
       <use xlink:href="#DejaVuSans-36" x="63.623047"/>
       <use xlink:href="#DejaVuSans-30" x="127.246094"/>
      </g>
     </g>
    </g>
   </g>
   <g id="line2d_18">
    <path d="M 67.37298 349.854716 
L 70.252581 350.754042 
L 73.132182 351.653368 
L 76.011783 352.552694 
L 78.891384 353.45202 
L 81.770984 354.351346 
L 84.650585 355.250672 
L 87.530186 356.149998 
L 90.409787 357.049324 
L 93.289388 357.94865 
L 96.168989 358.847976 
L 99.04859 359.747302 
L 101.92819 360.646628 
L 104.807791 361.545954 
L 107.687392 362.44528 
L 110.566993 363.344606 
L 113.446594 364.243932 
L 116.326195 365.143259 
L 119.205795 366.042585 
L 122.085396 366.941911 
L 124.964997 367.841237 
L 127.844598 368.740563 
L 130.724199 369.639889 
L 133.6038 370.539215 
L 136.483401 371.438541 
L 139.363001 372.337867 
L 142.242602 373.237193 
L 145.122203 374.136519 
L 148.001804 375.035845 
L 150.881405 375.935171 
L 153.761006 376.834497 
L 156.640607 377.733823 
L 159.520207 378.633149 
L 162.399808 379.532475 
L 165.279409 380.431801 
L 168.15901 381.331127 
L 171.038611 382.230453 
L 173.918212 383.129779 
L 176.797812 384.029105 
L 179.677413 384.928431 
L 182.557014 385.827757 
L 185.436615 386.727083 
L 188.316216 387.626409 
L 191.195817 388.525735 
L 194.075418 389.425061 
L 196.955018 390.324388 
L 199.834619 391.223714 
L 202.71422 392.12304 
L 205.593821 393.022366 
L 208.473422 393.921692 
L 211.353023 394.821018 
L 214.232624 395.720344 
L 217.112224 396.61967 
L 219.991825 397.518996 
L 222.871426 398.418322 
L 225.751027 399.317648 
L 228.630628 400.216974 
L 231.510229 401.1163 
L 234.389829 402.015626 
L 237.26943 402.914952 
L 240.149031 403.814278 
L 243.028632 404.713604 
L 245.908233 405.61293 
L 248.787834 406.512256 
L 251.667435 407.411582 
L 254.547035 408.310908 
L 257.426636 409.210234 
L 260.306237 410.10956 
L 263.185838 411.008886 
L 266.065439 411.908212 
L 268.94504 412.807538 
L 271.824641 413.706864 
L 274.704241 414.606191 
L 277.583842 415.505517 
L 280.463443 416.404843 
L 283.343044 417.304169 
L 286.222645 418.203495 
L 289.102246 419.102821 
L 291.981847 420.002147 
L 294.861447 420.901473 
L 297.741048 421.800799 
L 300.620649 422.700125 
L 303.50025 423.599451 
L 306.379851 424.498777 
L 309.259452 425.398103 
L 312.139052 426.297429 
L 315.018653 427.196755 
L 317.898254 428.096081 
L 320.777855 428.995407 
L 323.657456 429.894733 
L 326.537057 430.794059 
L 329.416658 431.693385 
L 332.296258 432.592711 
L 335.175859 433.492037 
L 338.05546 434.391363 
L 340.935061 435.290689 
L 343.814662 436.190015 
L 346.694263 437.089341 
L 349.573864 437.988667 
L 352.453464 438.887993 
L 355.333065 439.78732 
L 358.212666 440.686646 
L 361.092267 441.585972 
L 363.971868 442.485298 
L 366.851469 443.384624 
L 369.731069 444.28395 
L 372.61067 445.183276 
L 375.490271 446.082602 
L 378.369872 446.981928 
L 381.249473 447.881254 
L 384.129074 448.78058 
L 387.008675 449.679906 
L 389.888275 450.579232 
L 392.767876 451.478558 
L 395.647477 452.377884 
L 398.527078 453.27721 
L 401.406679 454.176536 
L 404.28628 455.075862 
" clip-path="url(#p2351cea9a5)" style="fill: none; stroke: #1f77b4; stroke-width: 2; stroke-linecap: square"/>
   </g>
   <g id="line2d_19">
    <path d="M 92.050251 149.691764 
L 533.156462 264.169745 
L 533.156462 264.169745 
" clip-path="url(#p2351cea9a5)" style="fill: none; stroke: #ff7f0e; stroke-width: 2; stroke-linecap: square"/>
   </g>
   <g id="line2d_20">
    <path d="M 170.537689 432.455031 
L 379.60901 31.103773 
L 379.60901 31.103773 
" clip-path="url(#p2351cea9a5)" style="fill: none; stroke: #2ca02c; stroke-width: 2; stroke-linecap: square"/>
   </g>
   <g id="line2d_21">
    <path d="M 385.778338 421.144615 
L 387.332092 418.343287 
L 388.885847 415.54196 
L 390.439601 412.740633 
L 391.993355 409.939305 
L 393.547109 407.137978 
L 395.100864 404.336651 
L 396.654618 401.535324 
L 398.208372 398.733996 
L 399.762126 395.932669 
L 401.315881 393.131342 
L 402.869635 390.330014 
L 404.423389 387.528687 
L 405.977143 384.72736 
L 407.530898 381.926032 
L 409.084652 379.124705 
L 410.638406 376.323378 
L 412.192161 373.522051 
L 413.745915 370.720723 
L 415.299669 367.919396 
L 416.853423 365.118069 
L 418.407178 362.316741 
L 419.960932 359.515414 
L 421.514686 356.714087 
L 423.06844 353.912759 
L 424.622195 351.111432 
L 426.175949 348.310105 
L 427.729703 345.508778 
L 429.283457 342.70745 
L 430.837212 339.906123 
L 432.390966 337.104796 
L 433.94472 334.303468 
L 435.498474 331.502141 
L 437.052229 328.700814 
L 438.605983 325.899486 
L 440.159737 323.098159 
L 441.713491 320.296832 
L 443.267246 317.495505 
L 444.821 314.694177 
L 446.374754 311.89285 
L 447.928508 309.091523 
L 449.482263 306.290195 
L 451.036017 303.488868 
L 452.589771 300.687541 
L 454.143525 297.886213 
L 455.69728 295.084886 
L 457.251034 292.283559 
L 458.804788 289.482232 
L 460.358543 286.680904 
L 461.912297 283.879577 
L 463.466051 281.07825 
L 465.019805 278.276922 
L 466.57356 275.475595 
L 468.127314 272.674268 
L 469.681068 269.87294 
L 471.234822 267.071613 
L 472.788577 264.270286 
L 474.342331 261.468959 
L 475.896085 258.667631 
L 477.449839 255.866304 
L 479.003594 253.064977 
L 480.557348 250.263649 
L 482.111102 247.462322 
L 483.664856 244.660995 
L 485.218611 241.859667 
L 486.772365 239.05834 
L 488.326119 236.257013 
L 489.879873 233.455686 
L 491.433628 230.654358 
L 492.987382 227.853031 
L 494.541136 225.051704 
L 496.09489 222.250376 
L 497.648645 219.449049 
L 499.202399 216.647722 
L 500.756153 213.846394 
L 502.309907 211.045067 
" clip-path="url(#p2351cea9a5)" style="fill: none; stroke: #d62728; stroke-width: 2; stroke-linecap: square"/>
   </g>
   <g id="line2d_22">
    <path d="M 105.75699 225.100252 
L 108.762787 225.902676 
L 111.768584 226.7051 
L 114.774381 227.507524 
L 117.780178 228.309947 
L 120.785975 229.112371 
L 123.791772 229.914795 
L 126.797569 230.717219 
L 129.803366 231.519643 
L 132.809163 232.322067 
L 135.814961 233.124491 
L 138.820758 233.926915 
L 141.826555 234.729339 
L 144.832352 235.531763 
L 147.838149 236.334187 
L 150.843946 237.136611 
L 153.849743 237.939035 
L 156.85554 238.741459 
L 159.861337 239.543883 
L 162.867134 240.346306 
L 165.872931 241.14873 
L 168.878728 241.951154 
L 171.884525 242.753578 
L 174.890322 243.556002 
L 177.896119 244.358426 
L 180.901916 245.16085 
L 183.907713 245.963274 
L 186.91351 246.765698 
L 189.919307 247.568122 
L 192.925104 248.370546 
L 195.930901 249.17297 
L 198.936698 249.975394 
L 201.942496 250.777818 
L 204.948293 251.580242 
L 207.95409 252.382665 
L 210.959887 253.185089 
L 213.965684 253.987513 
L 216.971481 254.789937 
L 219.977278 255.592361 
L 222.983075 256.394785 
L 225.988872 257.197209 
L 228.994669 257.999633 
L 232.000466 258.802057 
L 235.006263 259.604481 
L 238.01206 260.406905 
L 241.017857 261.209329 
L 244.023654 262.011753 
L 247.029451 262.814177 
L 250.035248 263.616601 
L 253.041045 264.419024 
L 256.046842 265.221448 
L 259.052639 266.023872 
L 262.058436 266.826296 
L 265.064233 267.62872 
L 268.070031 268.431144 
L 271.075828 269.233568 
L 274.081625 270.035992 
L 277.087422 270.838416 
L 280.093219 271.64084 
L 283.099016 272.443264 
L 286.104813 273.245688 
L 289.11061 274.048112 
L 292.116407 274.850536 
L 295.122204 275.65296 
L 298.128001 276.455383 
L 301.133798 277.257807 
L 304.139595 278.060231 
L 307.145392 278.862655 
L 310.151189 279.665079 
L 313.156986 280.467503 
L 316.162783 281.269927 
L 319.16858 282.072351 
L 322.174377 282.874775 
L 325.180174 283.677199 
L 328.185971 284.479623 
L 331.191768 285.282047 
L 334.197566 286.084471 
L 337.203363 286.886895 
L 340.20916 287.689319 
L 343.214957 288.491742 
L 346.220754 289.294166 
L 349.226551 290.09659 
L 352.232348 290.899014 
L 355.238145 291.701438 
L 358.243942 292.503862 
L 361.249739 293.306286 
L 364.255536 294.10871 
L 367.261333 294.911134 
L 370.26713 295.713558 
L 373.272927 296.515982 
L 376.278724 297.318406 
L 379.284521 298.12083 
L 382.290318 298.923254 
L 385.296115 299.725678 
L 388.301912 300.528101 
L 391.307709 301.330525 
L 394.313506 302.132949 
L 397.319303 302.935373 
L 400.325101 303.737797 
L 403.330898 304.540221 
L 406.336695 305.342645 
L 409.342492 306.145069 
L 412.348289 306.947493 
L 415.354086 307.749917 
L 418.359883 308.552341 
L 421.36568 309.354765 
L 424.371477 310.157189 
L 427.377274 310.959613 
L 430.383071 311.762037 
L 433.388868 312.56446 
L 436.394665 313.366884 
L 439.400462 314.169308 
L 442.406259 314.971732 
L 445.412056 315.774156 
L 448.417853 316.57658 
L 451.42365 317.379004 
L 454.429447 318.181428 
L 457.435244 318.983852 
L 460.441041 319.786276 
L 463.446838 320.5887 
L 466.452636 321.391124 
L 469.458433 322.193548 
L 472.46423 322.995972 
L 475.470027 323.798396 
L 478.475824 324.600819 
L 481.481621 325.403243 
L 484.487418 326.205667 
" clip-path="url(#p2351cea9a5)" style="fill: none; stroke: #9467bd; stroke-width: 2; stroke-linecap: square"/>
   </g>
   <g id="line2d_23">
    <path d="M 57.090784 283.363182 
L 453.298094 381.386788 
L 453.298094 381.386788 
" clip-path="url(#p2351cea9a5)" style="fill: none; stroke: #8c564b; stroke-width: 2; stroke-linecap: square"/>
   </g>
   <g id="line2d_24">
    <path d="M 246.283194 121.24721 
L 249.35467 121.908523 
L 252.426147 122.569835 
L 255.497624 123.231148 
L 258.5691 123.89246 
L 261.640577 124.553773 
L 264.712053 125.215085 
L 267.78353 125.876397 
L 270.855006 126.53771 
L 273.926483 127.199022 
L 276.997959 127.860335 
L 280.069436 128.521647 
L 283.140913 129.182959 
L 286.212389 129.844272 
L 289.283866 130.505584 
L 292.355342 131.166897 
L 295.426819 131.828209 
L 298.498295 132.489521 
L 301.569772 133.150834 
L 304.641248 133.812146 
L 307.712725 134.473459 
L 310.784202 135.134771 
L 313.855678 135.796083 
L 316.927155 136.457396 
L 319.998631 137.118708 
L 323.070108 137.780021 
L 326.141584 138.441333 
L 329.213061 139.102645 
L 332.284537 139.763958 
L 335.356014 140.42527 
L 338.427491 141.086583 
L 341.498967 141.747895 
L 344.570444 142.409207 
L 347.64192 143.07052 
L 350.713397 143.731832 
L 353.784873 144.393145 
L 356.85635 145.054457 
L 359.927826 145.715769 
L 362.999303 146.377082 
L 366.07078 147.038394 
L 369.142256 147.699707 
L 372.213733 148.361019 
L 375.285209 149.022331 
L 378.356686 149.683644 
L 381.428162 150.344956 
L 384.499639 151.006269 
L 387.571115 151.667581 
L 390.642592 152.328893 
L 393.714069 152.990206 
L 396.785545 153.651518 
L 399.857022 154.312831 
L 402.928498 154.974143 
L 405.999975 155.635455 
L 409.071451 156.296768 
L 412.142928 156.95808 
L 415.214404 157.619393 
L 418.285881 158.280705 
L 421.357358 158.942017 
L 424.428834 159.60333 
L 427.500311 160.264642 
L 430.571787 160.925955 
L 433.643264 161.587267 
L 436.71474 162.248579 
L 439.786217 162.909892 
L 442.857693 163.571204 
L 445.92917 164.232517 
L 449.000647 164.893829 
L 452.072123 165.555141 
L 455.1436 166.216454 
L 458.215076 166.877766 
L 461.286553 167.539079 
L 464.358029 168.200391 
L 467.429506 168.861703 
L 470.500982 169.523016 
L 473.572459 170.184328 
L 476.643935 170.845641 
L 479.715412 171.506953 
L 482.786889 172.168265 
L 485.858365 172.829578 
" clip-path="url(#p2351cea9a5)" style="fill: none; stroke: #e377c2; stroke-width: 2; stroke-linecap: square"/>
   </g>
   <g id="line2d_25">
    <path d="M 261.363745 462.2734 
L 445.072322 102.739269 
L 445.072322 102.739269 
" clip-path="url(#p2351cea9a5)" style="fill: none; stroke: #7f7f7f; stroke-width: 2; stroke-linecap: square"/>
   </g>
   <g id="line2d_26">
    <path d="M 87.594634 396.810082 
L 89.135081 394.117125 
L 90.675527 391.424169 
L 92.215973 388.731213 
L 93.756419 386.038256 
L 95.296866 383.3453 
L 96.837312 380.652344 
L 98.377758 377.959388 
L 99.918204 375.266431 
L 101.458651 372.573475 
L 102.999097 369.880519 
L 104.539543 367.187563 
L 106.079989 364.494606 
L 107.620435 361.80165 
L 109.160882 359.108694 
L 110.701328 356.415738 
L 112.241774 353.722781 
L 113.78222 351.029825 
L 115.322667 348.336869 
L 116.863113 345.643912 
L 118.403559 342.950956 
L 119.944005 340.258 
L 121.484452 337.565044 
L 123.024898 334.872087 
L 124.565344 332.179131 
L 126.10579 329.486175 
L 127.646236 326.793219 
L 129.186683 324.100262 
L 130.727129 321.407306 
L 132.267575 318.71435 
L 133.808021 316.021393 
L 135.348468 313.328437 
L 136.888914 310.635481 
L 138.42936 307.942525 
L 139.969806 305.249568 
L 141.510253 302.556612 
L 143.050699 299.863656 
L 144.591145 297.1707 
L 146.131591 294.477743 
L 147.672037 291.784787 
L 149.212484 289.091831 
L 150.75293 286.398875 
L 152.293376 283.705918 
L 153.833822 281.012962 
L 155.374269 278.320006 
L 156.914715 275.627049 
L 158.455161 272.934093 
L 159.995607 270.241137 
L 161.536054 267.548181 
L 163.0765 264.855224 
L 164.616946 262.162268 
L 166.157392 259.469312 
L 167.697838 256.776356 
L 169.238285 254.083399 
L 170.778731 251.390443 
L 172.319177 248.697487 
L 173.859623 246.00453 
L 175.40007 243.311574 
L 176.940516 240.618618 
L 178.480962 237.925662 
L 180.021408 235.232705 
L 181.561855 232.539749 
L 183.102301 229.846793 
L 184.642747 227.153837 
L 186.183193 224.46088 
L 187.723639 221.767924 
L 189.264086 219.074968 
L 190.804532 216.382012 
L 192.344978 213.689055 
L 193.885424 210.996099 
L 195.425871 208.303143 
L 196.966317 205.610186 
L 198.506763 202.91723 
L 200.047209 200.224274 
L 201.587656 197.531318 
L 203.128102 194.838361 
L 204.668548 192.145405 
L 206.208994 189.452449 
L 207.74944 186.759493 
L 209.289887 184.066536 
L 210.830333 181.37358 
L 212.370779 178.680624 
L 213.911225 175.987667 
L 215.451672 173.294711 
L 216.992118 170.601755 
L 218.532564 167.908799 
L 220.07301 165.215842 
L 221.613457 162.522886 
L 223.153903 159.82993 
L 224.694349 157.136974 
L 226.234795 154.444017 
L 227.775241 151.751061 
" clip-path="url(#p2351cea9a5)" style="fill: none; stroke: #bcbd22; stroke-width: 2; stroke-linecap: square"/>
   </g>
   <g id="patch_3">
    <path d="M 33.2875 483.831881 
L 33.2875 9.545292 
" style="fill: none; stroke: #000000; stroke-width: 0.8; stroke-linejoin: miter; stroke-linecap: square"/>
   </g>
   <g id="patch_4">
    <path d="M 556.959746 483.831881 
L 556.959746 9.545292 
" style="fill: none; stroke: #000000; stroke-width: 0.8; stroke-linejoin: miter; stroke-linecap: square"/>
   </g>
   <g id="patch_5">
    <path d="M 33.2875 483.831881 
L 556.959746 483.831881 
" style="fill: none; stroke: #000000; stroke-width: 0.8; stroke-linejoin: miter; stroke-linecap: square"/>
   </g>
   <g id="patch_6">
    <path d="M 33.2875 9.545292 
L 556.959746 9.545292 
" style="fill: none; stroke: #000000; stroke-width: 0.8; stroke-linejoin: miter; stroke-linecap: square"/>
   </g>
  </g>
 </g>
 <defs>
  <clipPath id="p2351cea9a5">
   <rect x="33.2875" y="9.545292" width="523.672246" height="474.286589"/>
  </clipPath>
 </defs>
</svg>
